<svg width="26px" height="26px" viewBox="0 0 26 26" version="1.1" xmlns="http://www.w3.org/2000/svg" xmlns:xlink="http://www.w3.org/1999/xlink">
	<!-- Generator: Sketch 48.1 (47250) - http://www.bohemiancoding.com/sketch -->
	<desc>Created with Sketch.</desc>
	<defs></defs>
	<g id="Page-1" stroke="none" stroke-width="1" fill="none" fill-rule="evenodd">
		<path d="M13,0 C16.5885596,0 19.6523311,1.26951855 22.1914062,3.80859375 C24.7304814,6.34766895 26,9.41144039 26,13 C26,16.5885596 24.7304814,19.6523311 22.1914062,22.1914062 C19.6523311,24.7304814 16.5885596,26 13,26 C9.41144039,26 6.34766895,24.7304814 3.80859375,22.1914062 C1.26951855,19.6523311 0,16.5885596 0,13 C0,9.41144039 1.26951855,6.34766895 3.80859375,3.80859375 C6.34766895,1.26951855 9.41144039,0 13,0 Z M13,25.0351562 C16.3177249,25.0351562 19.152983,23.8587357 21.5058594,21.5058594 C23.8587357,19.152983 25.0351562,16.3177249 25.0351562,13 C25.0351562,9.68227508 23.8587357,6.84701697 21.5058594,4.49414062 C19.152983,2.14126428 16.3177249,0.96484375 13,0.96484375 C9.68227508,0.96484375 6.84701697,2.14126428 4.49414062,4.49414062 C2.14126428,6.84701697 0.96484375,9.68227508 0.96484375,13 C0.96484375,16.3177249 2.14126428,19.152983 4.49414062,21.5058594 C6.84701697,23.8587357 9.68227508,25.0351562 13,25.0351562 Z M14.5234375,11.0195312 L14.5234375,6.95703125 L21.0234375,12.59375 L21.0234375,13.4570312 L14.5234375,19.0429688 L14.5234375,15.03125 L6.5,15.03125 L6.5,11.0195312 L14.5234375,11.0195312 Z"
		 id="" fill="#323232"></path>
	</g>
</svg>